
<svg width="120" height="68" viewBox="0 0 120 68" fill="none" xmlns="http://www.w3.org/2000/svg">
<mask id="mask0_7474_104671" style="mask-type:alpha" maskUnits="userSpaceOnUse" x="0" y="0" width="20" height="27">
<path d="M0 0H19.6875V26.4444H0V0Z" fill="white"/>
</mask>
<g mask="url(#mask0_7474_104671)">
<path fill-rule="evenodd" clip-rule="evenodd" d="M16.9291 24.0794C19.0513 22.3807 19.6875 19.8164 19.6875 17.319C19.6875 13.2552 16.8231 11.4906 13.1088 10.4578L11.3403 9.95862C10.1379 9.59172 8.26325 9.02565 8.26325 7.56057C8.26325 6.16136 9.96079 5.46252 11.2342 5.46252C11.8629 5.46252 12.4818 5.55323 13.076 5.71895C14.8484 6.21255 16.7424 5.45745 17.5858 3.91027L18.5718 2.10159C18.5831 2.08132 18.5745 2.05598 18.5535 2.04483C16.1864 0.791075 12.9172 0 10.2434 0C4.9026 0 1.0468 3.33052 1.0468 8.42664C1.0468 13.2886 3.91228 14.3549 8.26325 15.52C9.74873 15.9198 12.4721 16.5528 12.4721 18.3848C12.4721 20.1493 10.7391 20.9156 9.11148 20.9156C6.7417 20.9156 4.69055 19.75 2.95748 18.3184L0.0053425 23.5463C-0.00542189 23.5655 0.000498525 23.5893 0.0193362 23.602C2.73627 25.3869 6.01295 26.4445 9.3596 26.4445C12.0475 26.4445 14.8419 25.7446 16.9291 24.0794Z" fill="#008EFA"/>
</g>
<path fill-rule="evenodd" clip-rule="evenodd" d="M26.9325 22.7759V17.4387C26.9325 15.2714 27.6608 13.4096 30.2255 13.4096C33.3449 13.4096 33.0675 16.3208 33.0675 17.9802V26.4001C33.0675 26.4249 33.0876 26.4444 33.1123 26.4444H35.62C37.6937 26.4444 39.375 24.8021 39.375 22.7759V15.7119C39.375 11.4457 37.469 8.5 32.6867 8.5C30.2334 8.5 28.4687 9.20733 27.0158 11.2912C27.0074 11.303 26.9937 11.3103 26.9784 11.3103H26.9778C26.9531 11.3103 26.9325 11.2912 26.9325 11.2665V9.11924C26.9325 9.09554 26.9124 9.07545 26.8877 9.07545H20.6698C20.6445 9.07545 20.625 9.09554 20.625 9.11924V26.4001C20.625 26.4249 20.6445 26.4444 20.6698 26.4444H23.1775C25.2517 26.4444 26.9325 24.8021 26.9325 22.7759Z" fill="#008EFA"/>
<path fill-rule="evenodd" clip-rule="evenodd" d="M46.7965 17.4884C46.7965 15.4224 48.2796 13.6833 50.8318 13.6833C53.3844 13.6833 54.8676 15.4224 54.8676 17.4884C54.8676 19.6209 53.3844 21.2611 50.8318 21.2611C48.2796 21.2611 46.7965 19.6209 46.7965 17.4884ZM54.5784 24.0365C54.5863 24.0245 54.6004 24.017 54.6156 24.017C54.6403 24.017 54.6603 24.036 54.6603 24.0594V25.844C54.6603 25.8679 54.6807 25.8869 54.7049 25.8869H57.2003C59.2644 25.8869 60.9375 24.2955 60.9375 22.3323V9.1C60.9375 9.07703 60.9181 9.05757 60.8929 9.05757H54.7049C54.6807 9.05757 54.6603 9.07703 54.6603 9.1V10.584C54.6603 10.6234 54.6093 10.6414 54.5821 10.612C53.2653 9.19384 51.1713 8.5 49.176 8.5C43.9337 8.5 40.3125 12.6336 40.3125 17.456C40.3125 22.2784 44.003 26.4444 49.2458 26.4444C51.3067 26.4444 53.471 25.6957 54.5784 24.0365Z" fill="#008EFA"/>
<path fill-rule="evenodd" clip-rule="evenodd" d="M73.8555 21.2987C71.3027 21.2987 69.8196 19.6531 69.8196 17.5149C69.8196 15.4423 71.3027 13.6986 73.8555 13.6986C76.4077 13.6986 77.8908 15.4423 77.8908 17.5149C77.8908 19.6531 76.4077 21.2987 73.8555 21.2987ZM75.442 8.5C73.3805 8.5 71.2497 9.28349 70.1093 10.9486C70.1009 10.9601 70.0862 10.9676 70.072 10.9676H70.0715C70.0468 10.9676 70.0269 10.9486 70.0269 10.9251V9.05921H63.75V33.0556H66.2896C68.3537 33.0556 70.0269 31.4595 70.0269 29.491V24.34C70.0269 24.335 70.0332 24.3325 70.0368 24.337C71.382 25.8094 73.4807 26.4968 75.5113 26.4968C80.7537 26.4968 84.375 22.4171 84.375 17.5479C84.375 12.7113 80.7191 8.5 75.442 8.5Z" fill="#008EFA"/>
<path fill-rule="evenodd" clip-rule="evenodd" d="M95.418 21.2987C92.8652 21.2987 91.3826 19.6531 91.3826 17.5149C91.3826 15.4423 92.8652 13.6986 95.418 13.6986C97.9702 13.6986 99.4538 15.4423 99.4538 17.5149C99.4538 19.6531 97.9702 21.2987 95.418 21.2987ZM97.0045 8.5C94.943 8.5 92.8127 9.28349 91.6718 10.9486C91.6634 10.9601 91.6497 10.9676 91.6345 10.9676H91.634C91.6093 10.9676 91.5894 10.9486 91.5894 10.9251V9.10176C91.5894 9.07873 91.5694 9.05921 91.5448 9.05921H85.3571C85.3319 9.05921 85.3125 9.07873 85.3125 9.10176V33.013C85.3125 33.0365 85.3319 33.0556 85.3571 33.0556H87.8521C89.9162 33.0556 91.5894 31.4595 91.5894 29.491V24.4377C91.5894 24.3981 91.6403 24.3806 91.6671 24.4101C93.0153 25.8324 95.0773 26.4968 97.0738 26.4968C102.316 26.4968 105.938 22.4171 105.938 17.5479C105.938 12.7113 102.282 8.5 97.0045 8.5Z" fill="#008EFA"/>
<path fill-rule="evenodd" clip-rule="evenodd" d="M113.224 0.944336L108.75 16.9999H112.469C114.269 16.9999 115.841 15.8621 116.29 14.2333L120 0.944336H113.224Z" fill="#008EFA"/>
<path fill-rule="evenodd" clip-rule="evenodd" d="M112.032 18.8889C109.703 18.8889 107.812 20.5817 107.812 22.6664C107.812 24.7511 109.703 26.4445 112.032 26.4445C114.36 26.4445 116.25 24.7511 116.25 22.6664C116.25 20.5817 114.36 18.8889 112.032 18.8889Z" fill="#008EFA"/>
<path fill-rule="evenodd" clip-rule="evenodd" d="M109.104 1.30895H109.112L109.583 2.83322H109.791L110.263 1.30895H110.271V2.83322H110.625V0.944336H110.054L109.688 2.06206L109.322 0.944336H108.75V2.83322H109.104V1.30895Z" fill="#008EFA"/>
<path fill-rule="evenodd" clip-rule="evenodd" d="M108.485 2.83322H109.015V1.30895H109.688V0.944336H107.812V1.30895H108.485V2.83322Z" fill="#008EFA"/>
<path fill-rule="evenodd" clip-rule="evenodd" d="M8.95184 45.1908H6.72195V38.5974H8.95184C11.4212 38.5974 12.6553 39.6964 12.6553 41.8941C12.6553 44.0922 11.4212 45.1908 8.95184 45.1908ZM10.7013 33.0557H0V59.5001H6.72195V50.732H10.7013C13.6042 50.732 15.8289 49.9607 17.3722 48.4172C18.9156 46.8743 19.6875 44.6995 19.6875 41.8941C19.6875 39.0881 18.9156 36.9139 17.3722 35.3704C15.8289 33.8274 13.6042 33.0557 10.7013 33.0557Z" fill="#008EFA"/>
<path fill-rule="evenodd" clip-rule="evenodd" d="M35.7899 51.6324C35.5705 52.1179 35.2832 52.5455 34.9273 52.9153C34.5708 53.285 34.1453 53.5733 33.6512 53.781C33.1566 53.9893 32.6337 54.0935 32.0825 54.0935C31.5068 54.0935 30.9724 53.9893 30.4783 53.781C29.9837 53.5733 29.5586 53.285 29.2022 52.9153C28.8458 52.5455 28.5642 52.1121 28.3569 51.6151C28.1501 51.1185 28.0465 50.5815 28.0465 50.0035C28.0465 49.4491 28.1501 48.9347 28.3569 48.4613C28.5642 47.9879 28.8458 47.5661 29.2022 47.1963C29.5586 46.8271 29.9837 46.5378 30.4783 46.3295C30.9724 46.1217 31.5068 46.0176 32.0825 46.0176C32.6337 46.0176 33.1566 46.1217 33.6512 46.3295C34.1453 46.5378 34.5708 46.8271 34.9273 47.1963C35.2832 47.5661 35.5705 47.999 35.7899 48.496C36.0081 48.9931 36.117 49.5185 36.117 50.0729C36.117 50.6273 36.0081 51.1475 35.7899 51.6324ZM35.9102 42.9333C34.4614 41.3853 32.6337 40.6111 30.427 40.6111C29.1164 40.6111 27.9198 40.8593 26.8395 41.3559C25.7587 41.8534 24.8275 42.5293 24.0461 43.384C23.2636 44.2387 22.6543 45.2376 22.2178 46.3816C21.7808 47.5251 21.5625 48.7327 21.5625 50.0035C21.5625 51.3673 21.787 52.6265 22.2346 53.781C22.6836 54.9366 23.3102 55.9423 24.1152 56.797C24.9191 57.6517 25.8623 58.316 26.9432 58.7894C28.023 59.2628 29.208 59.5 30.4956 59.5C32.7719 59.5 34.5766 58.6568 35.9102 56.9695V58.9456H42.1875V41.1655H35.9102V42.9333Z" fill="#008EFA"/>
<path fill-rule="evenodd" clip-rule="evenodd" d="M55.8831 50.5999L51.2159 41.5557H44.0625L52.5104 56.7896L46.5491 68.0001H53.4647L67.5 41.5557H60.4138L55.8831 50.5999Z" fill="#008EFA"/>
</svg>
