<svg width="50" height="50" viewBox="0 0 50 50" fill="none" xmlns="http://www.w3.org/2000/svg">
<g clip-path="url(#clip0_1741_11752)">
<mask id="mask0_1741_11752" style="mask-type:luminance" maskUnits="userSpaceOnUse" x="0" y="0" width="50" height="50">
<path d="M0 0H50V50H0V0Z" fill="white"/>
</mask>
<g mask="url(#mask0_1741_11752)">
<mask id="mask1_1741_11752" style="mask-type:luminance" maskUnits="userSpaceOnUse" x="0" y="0" width="50" height="50">
<path d="M0 0H50V50H0V0Z" fill="white"/>
</mask>
<g mask="url(#mask1_1741_11752)">
<path d="M38.6241 11.3733C31.0981 3.8483 18.8971 3.8483 11.3711 11.3733C3.84506 18.8993 3.84506 31.1013 11.3711 38.6273C18.8971 46.1523 31.0981 46.1523 38.6241 38.6273C46.1501 31.1013 46.1501 18.8993 38.6241 11.3733ZM33.2441 33.2493C33.0508 33.443 32.8212 33.5967 32.5685 33.7013C32.3157 33.806 32.0447 33.8597 31.7711 33.8593C31.4975 33.8597 31.2265 33.806 30.9737 33.7013C30.7209 33.5967 30.4913 33.443 30.2981 33.2493L23.6061 26.5553C23.604 26.553 23.6016 26.551 23.5991 26.5493C23.1801 26.1673 22.9171 25.6173 22.9171 25.0063V18.3183C22.9171 17.1673 23.8491 16.2343 25.0001 16.2343C26.1521 16.2343 27.0841 17.1673 27.0841 18.3183V24.1423L33.2441 30.3033C34.0581 31.1173 34.0581 32.4363 33.2441 33.2493Z" fill="#E38019"/>
</g>
</g>
</g>
<defs>
<clipPath id="clip0_1741_11752">
<rect width="50" height="50" fill="white"/>
</clipPath>
</defs>
</svg>
