<svg width="48" height="52" viewBox="0 0 48 52" fill="none" xmlns="http://www.w3.org/2000/svg"> <path d="M27.3229 5.09375H20.7812V8.77397H27.3229V5.09375Z" fill="#BCBEC0"/> <path d="M29.5957 4.89753C29.5957 5.25833 29.2823 5.55134 28.8969 5.55134H19.0881C18.7032 5.55134 18.3906 5.25833 18.3906 4.89753V0.98891C18.3906 0.627581 18.7032 0.334961 19.0881 0.334961H28.8968C29.2823 0.334961 29.5957 0.627553 29.5957 0.98891L29.5957 4.89753Z" fill="#939598"/> <path d="M36.9297 12.1874L40.7106 15.1545L42.3824 13.2822L38.6004 10.3156L36.9297 12.1874Z" fill="#BCBEC0"/> <path d="M43.1392 13.7105C42.976 13.8948 42.6979 13.9309 42.5198 13.7911L37.9851 10.2334C37.8072 10.0929 37.7957 9.83106 37.9594 9.64715L39.7339 7.65929C39.8979 7.47579 40.1758 7.43928 40.3534 7.57967L44.8885 11.1379C45.0668 11.2773 45.0784 11.5391 44.9144 11.7236L43.1392 13.7105Z" fill="#939598"/> <path d="M10.7108 12.1873L6.92968 15.1544L5.25781 13.2821L9.03975 10.3154L10.7108 12.1873Z" fill="#BCBEC0"/> <path d="M4.49985 13.7105C4.66383 13.8948 4.94143 13.9309 5.11959 13.7911L9.65387 10.2334C9.83233 10.0929 9.84394 9.83106 9.67972 9.64715L7.9054 7.65929C7.74141 7.47579 7.46355 7.43928 7.28648 7.57967L2.75137 11.1378C2.57261 11.2772 2.56121 11.5391 2.72523 11.7236L4.49985 13.7105Z" fill="#939598"/> <path d="M47.45 29.6586C47.45 41.804 36.9469 51.6507 23.9911 51.6507C11.0346 51.6507 0.53125 41.804 0.53125 29.6586C0.53125 17.511 11.0346 7.66586 23.9911 7.66586C36.9469 7.66586 47.45 17.5111 47.45 29.6586Z" fill="#003D5B"/> <path d="M43.5666 29.6582C43.5666 39.7951 34.8001 48.014 23.9869 48.014C13.173 48.014 4.40625 39.7951 4.40625 29.6582C4.40625 19.5193 13.173 11.3018 23.9869 11.3018C34.8002 11.3018 43.5666 19.5193 43.5666 29.6582Z" fill="#6E90A1"/> <path d="M42.6446 29.6582C42.6446 39.3171 34.2931 47.1456 23.9908 47.1456C13.6881 47.1456 5.33594 39.317 5.33594 29.6582C5.33594 19.9989 13.6881 12.1698 23.9908 12.1698C34.2931 12.1698 42.6446 19.9989 42.6446 29.6582Z" fill="white"/> <path d="M42.646 29.6587H23.9922L29.5256 12.9521C37.125 15.1623 42.646 21.8063 42.646 29.6587Z" fill="#F7EF00"/> <path d="M25.0411 28.5906C25.0411 29.1783 24.5697 29.6569 23.9898 29.6569C23.4083 29.6569 22.9375 29.1783 22.9375 28.5906V16.5911C22.9375 16.0019 23.4083 15.5244 23.9898 15.5244C24.5697 15.5244 25.0411 16.0019 25.0411 16.5911V28.5906Z" fill="#001930"/> <path d="M23.8304 30.9118C23.5041 30.6045 23.5742 30.043 23.9869 29.6595C24.3995 29.2748 24.9973 29.2145 25.3234 29.5235L31.9742 35.811C32.3011 36.1194 32.231 36.6809 31.8181 37.0644C31.4053 37.4481 30.8067 37.5087 30.4801 37.1998L23.8304 30.9118Z" fill="#001930"/> <path d="M26.0039 29.6587C26.0039 30.6981 25.1045 31.5423 23.9946 31.5423C22.8843 31.5423 21.9844 30.6981 21.9844 29.6587C21.9844 28.6172 22.8843 27.7744 23.9946 27.7744C25.1045 27.7744 26.0039 28.6172 26.0039 29.6587Z" fill="#001930"/> <path d="M25.2466 29.6589C25.2466 30.3088 24.6836 30.8356 23.9907 30.8356C23.2967 30.8356 22.7344 30.3088 22.7344 29.6589C22.7344 29.0078 23.2967 28.4805 23.9907 28.4805C24.6836 28.4805 25.2466 29.0078 25.2466 29.6589Z" fill="#003E5B"/> <path d="M23.9918 29.6592L15.8906 38.3735" stroke="#003E5B" stroke-width="0.2499" stroke-miterlimit="10"/> <path d="M23.9922 12.7334V13.874" stroke="#001930" stroke-width="0.2499" stroke-miterlimit="10"/> <path d="M23.9922 45.5918V46.7322" stroke="#001930" stroke-width="0.2499" stroke-miterlimit="10"/> <path d="M42.1236 29.7334H40.9062" stroke="#001930" stroke-width="0.2499" stroke-miterlimit="10"/> <path d="M7.07589 29.7334H5.85938" stroke="#001930" stroke-width="0.2499" stroke-miterlimit="10"/> <path d="M36.8138 17.7119L35.9531 18.5196" stroke="#001930" stroke-width="0.2499" stroke-miterlimit="10"/> <path d="M12.0325 40.9443L11.1719 41.7511" stroke="#001930" stroke-width="0.2499" stroke-miterlimit="10"/> <path d="M36.8138 41.7511L35.9531 40.9443" stroke="#001930" stroke-width="0.2499" stroke-miterlimit="10"/> <path d="M12.0325 18.5196L11.1719 17.7119" stroke="#001930" stroke-width="0.2499" stroke-miterlimit="10"/> </svg>