<svg width="84" height="81" viewBox="0 0 84 81" fill="none" xmlns="http://www.w3.org/2000/svg">
<path fill-rule="evenodd" clip-rule="evenodd" d="M46.8919 1.12787C44.2035 1.43987 41.1034 2.42265 38.9635 3.64138C37.6925 4.36514 37.6521 4.3757 35.5625 4.53089C26.8685 5.17697 22.3503 8.25629 21.15 14.3535C20.773 16.2687 20.93 22.343 21.4251 24.9971C21.4915 25.3523 21.3879 25.4621 20.6025 25.8708C18.9072 26.7527 18.0603 28.112 17.9575 30.1157C17.8843 31.5438 18.5741 37.4985 18.9755 38.9031C19.3991 40.3854 20.5919 41.6472 22.1156 42.2252L22.8707 42.5117L23.2094 43.9511C23.3957 44.7427 23.7171 45.9023 23.9236 46.5279C24.7562 49.0505 26.8158 52.6313 28.4821 54.4531L29.2776 55.3229L28.6722 57.7389L28.0666 60.1549L20.8374 61.9752C16.8614 62.9764 13.0228 64.0294 12.3073 64.3152C9.76041 65.3326 7.76167 66.6633 5.71382 68.7046C2.23153 72.1763 0.13896 76.9919 0.118145 81.5821C0.111315 83.0964 0.129691 83.1808 0.561929 83.6133L1.01271 84.0648H41.6598H82.307L82.7436 83.6285C83.2887 83.0836 83.4061 82.0259 83.1417 80.04C82.3402 74.0216 78.9468 68.7865 73.8525 65.7093C71.7371 64.4314 70.0615 63.8808 62.4822 61.9739L55.2531 60.1549L54.7216 58.0539C54.4292 56.8982 54.1884 55.8796 54.1863 55.7903C54.1842 55.7009 54.6289 55.1159 55.1745 54.4903C57.7712 51.5129 59.8573 47.3666 60.5313 43.8428C60.7643 42.6248 60.9388 42.2218 61.2332 42.2218C61.6376 42.2218 62.9847 41.1985 63.5441 40.4665C64.2975 39.4806 64.5057 38.6668 64.9909 34.8137C65.6063 29.9276 65.5482 28.9787 64.5439 27.4979C64.0905 26.8292 62.8691 25.8055 62.2982 25.6152C62.1612 25.5697 62.1593 24.7276 62.2905 22.3406L62.4671 19.1272L63.454 18.0402C63.997 17.4426 64.6558 16.5818 64.9179 16.1275C66.6215 13.1769 65.9704 9.51207 63.0899 5.83882C61.1284 3.33751 57.8315 1.69125 53.6412 1.12072C52.1786 0.9215 48.6371 0.9254 46.8919 1.12787Z" fill="#197265"/>
<path fill-rule="evenodd" clip-rule="evenodd" d="M46.8919 1.12787C44.2035 1.43987 41.1034 2.42265 38.9635 3.64138C37.6925 4.36514 37.6521 4.3757 35.5625 4.53089C26.8685 5.17697 22.3503 8.25629 21.15 14.3535C20.773 16.2687 20.93 22.343 21.4251 24.9971C21.4915 25.3523 21.3879 25.4621 20.6025 25.8708C18.9072 26.7527 18.0603 28.112 17.9575 30.1157C17.8843 31.5438 18.5741 37.4985 18.9755 38.9031C19.3991 40.3854 20.5919 41.6472 22.1156 42.2252L22.8707 42.5117L23.2094 43.9511C23.3957 44.7427 23.7171 45.9023 23.9236 46.5279C24.7562 49.0505 26.8158 52.6313 28.4821 54.4531L29.2776 55.3229L28.6722 57.7389L28.0666 60.1549L20.8374 61.9752C16.8614 62.9764 13.0228 64.0294 12.3073 64.3152C9.76041 65.3326 7.76167 66.6633 5.71382 68.7046C2.23153 72.1763 0.13896 76.9919 0.118145 81.5821C0.111315 83.0964 0.129691 83.1808 0.561929 83.6133L1.01271 84.0648H41.6598H82.307L82.7436 83.6285C83.2887 83.0836 83.4061 82.0259 83.1417 80.04C82.3402 74.0216 78.9468 68.7865 73.8525 65.7093C71.7371 64.4314 70.0615 63.8808 62.4822 61.9739L55.2531 60.1549L54.7216 58.0539C54.4292 56.8982 54.1884 55.8796 54.1863 55.7903C54.1842 55.7009 54.6289 55.1159 55.1745 54.4903C57.7712 51.5129 59.8573 47.3666 60.5313 43.8428C60.7643 42.6248 60.9388 42.2218 61.2332 42.2218C61.6376 42.2218 62.9847 41.1985 63.5441 40.4665C64.2975 39.4806 64.5057 38.6668 64.9909 34.8137C65.6063 29.9276 65.5482 28.9787 64.5439 27.4979C64.0905 26.8292 62.8691 25.8055 62.2982 25.6152C62.1612 25.5697 62.1593 24.7276 62.2905 22.3406L62.4671 19.1272L63.454 18.0402C63.997 17.4426 64.6558 16.5818 64.9179 16.1275C66.6215 13.1769 65.9704 9.51207 63.0899 5.83882C61.1284 3.33751 57.8315 1.69125 53.6412 1.12072C52.1786 0.9215 48.6371 0.9254 46.8919 1.12787Z" fill="black" fill-opacity="0.3"/>
</svg>
