<svg width="24" height="24" viewBox="0 0 24 24" fill="none" xmlns="http://www.w3.org/2000/svg">
<g opacity="0.4">
<path d="M21.8484 11.4102L21.2284 18.1902C21.0184 20.1902 20.1984 22.2302 15.7984 22.2302H8.17844C3.77844 22.2302 2.95844 20.1902 2.75844 18.2002L2.14844 11.6902C2.15844 11.7002 2.16844 11.7102 2.18844 11.7202C2.52844 11.9402 2.85844 12.1602 3.21844 12.3602C3.35844 12.4502 3.50844 12.5302 3.65844 12.6102C4.78844 13.2302 5.99844 13.7202 7.24844 14.0602C7.74844 14.2102 8.25844 14.3202 8.77844 14.4102C8.97844 16.0102 10.3484 17.2502 11.9984 17.2502C13.6684 17.2502 15.0484 15.9802 15.2284 14.3502V14.3402C15.7384 14.2402 16.2484 14.1102 16.7484 13.9602C17.9984 13.5702 19.2084 13.0502 20.3384 12.3902C20.3984 12.3602 20.4484 12.3302 20.4884 12.3002C20.9484 12.0502 21.3884 11.7602 21.8084 11.4602C21.8284 11.4502 21.8384 11.4302 21.8484 11.4102Z" fill="#46BFB4"/>
<path d="M21.8484 11.4102L21.2284 18.1902C21.0184 20.1902 20.1984 22.2302 15.7984 22.2302H8.17844C3.77844 22.2302 2.95844 20.1902 2.75844 18.2002L2.14844 11.6902C2.15844 11.7002 2.16844 11.7102 2.18844 11.7202C2.52844 11.9402 2.85844 12.1602 3.21844 12.3602C3.35844 12.4502 3.50844 12.5302 3.65844 12.6102C4.78844 13.2302 5.99844 13.7202 7.24844 14.0602C7.74844 14.2102 8.25844 14.3202 8.77844 14.4102C8.97844 16.0102 10.3484 17.2502 11.9984 17.2502C13.6684 17.2502 15.0484 15.9802 15.2284 14.3502V14.3402C15.7384 14.2402 16.2484 14.1102 16.7484 13.9602C17.9984 13.5702 19.2084 13.0502 20.3384 12.3902C20.3984 12.3602 20.4484 12.3302 20.4884 12.3002C20.9484 12.0502 21.3884 11.7602 21.8084 11.4602C21.8284 11.4502 21.8384 11.4302 21.8484 11.4102Z" fill="black" fill-opacity="0.2"/>
</g>
<path d="M21.0871 6.98002C20.2371 6.04002 18.8271 5.57002 16.7571 5.57002H16.5171V5.53002C16.5171 3.85002 16.5171 1.77002 12.7571 1.77002H11.2371C7.47711 1.77002 7.47711 3.85002 7.47711 5.53002V5.57002H7.23711C5.16711 5.57002 3.74711 6.04002 2.90711 6.98002C1.91711 8.09002 1.94711 9.56002 2.04711 10.57L2.05711 10.64L2.14711 11.69C2.15711 11.7 2.17711 11.71 2.19711 11.72C2.53711 11.94 2.86711 12.16 3.22711 12.36C3.36711 12.45 3.51711 12.53 3.66711 12.61C4.79711 13.23 6.00711 13.72 7.24711 14.06C7.27711 16.65 9.39711 18.75 11.9971 18.75C14.6171 18.75 16.7471 16.62 16.7471 14V13.96C18.0071 13.58 19.2171 13.05 20.3471 12.39C20.4071 12.36 20.4471 12.33 20.4971 12.3C20.9571 12.05 21.3971 11.76 21.8171 11.46C21.8271 11.45 21.8471 11.43 21.8571 11.41L21.8971 11.05L21.9471 10.58C21.9571 10.52 21.9571 10.47 21.9671 10.4C22.0471 9.40002 22.0271 8.02002 21.0871 6.98002ZM8.90711 5.53002C8.90711 3.83002 8.90711 3.19002 11.2371 3.19002H12.7571C15.0871 3.19002 15.0871 3.83002 15.0871 5.53002V5.57002H8.90711V5.53002ZM11.9971 17.25C10.3471 17.25 8.97711 16.01 8.77711 14.41C8.75711 14.28 8.74711 14.14 8.74711 14C8.74711 12.21 10.2071 10.75 11.9971 10.75C13.7871 10.75 15.2471 12.21 15.2471 14C15.2471 14.12 15.2371 14.23 15.2271 14.34V14.35C15.0471 15.98 13.6671 17.25 11.9971 17.25Z" fill="#197265"/>
<path d="M11.425 16.0303C11.235 16.0303 11.045 15.9603 10.895 15.8103L9.905 14.8303C9.615 14.5403 9.615 14.0603 9.905 13.7703C10.195 13.4803 10.675 13.4803 10.965 13.7703L11.445 14.2503L13.055 12.7703C13.355 12.4903 13.835 12.5103 14.115 12.8103C14.395 13.1103 14.375 13.5903 14.075 13.8703L11.945 15.8403C11.785 15.9603 11.605 16.0303 11.425 16.0303Z" fill="#46BFB4"/>
<path d="M11.425 16.0303C11.235 16.0303 11.045 15.9603 10.895 15.8103L9.905 14.8303C9.615 14.5403 9.615 14.0603 9.905 13.7703C10.195 13.4803 10.675 13.4803 10.965 13.7703L11.445 14.2503L13.055 12.7703C13.355 12.4903 13.835 12.5103 14.115 12.8103C14.395 13.1103 14.375 13.5903 14.075 13.8703L11.945 15.8403C11.785 15.9603 11.605 16.0303 11.425 16.0303Z" fill="black" fill-opacity="0.2"/>
</svg>
