 <svg width="25" height="22" viewBox="0 0 25 22" fill="none" xmlns="http://www.w3.org/2000/svg">
<path d="M5.26955 9.01724H19.2054C19.2803 9.01724 19.3539 8.98753 19.4072 8.93342C19.4604 8.88104 19.4901 8.80698 19.4901 8.73106V0.284314C19.4901 0.20954 19.4604 0.135341 19.4072 0.0830997C19.3539 0.0298537 19.2803 0 19.2054 0H5.26955C5.19391 0 5.12072 0.0298537 5.06747 0.0830997C5.01465 0.135341 4.98438 0.20954 4.98438 0.284314V8.73106C4.98438 8.80698 5.01465 8.88104 5.06747 8.93342C5.12072 8.98753 5.19377 9.01724 5.26955 9.01724Z" fill="#BAE3DF"/>
<path d="M5.26955 10.2062H19.2054C19.3635 10.2062 19.4901 10.0779 19.4901 9.9202C19.4901 9.7629 19.3634 9.63574 19.2054 9.63574H5.26955C5.11196 9.63574 4.98438 9.76305 4.98438 9.9202C4.98423 10.0779 5.11196 10.2062 5.26955 10.2062Z" fill="#BAE3DF"/>
<path d="M10.7777 11.0677C10.4041 11.4414 10.1719 11.9595 10.1719 12.5318C10.1719 13.1024 10.4039 13.6205 10.7777 13.9941C11.1505 14.3678 11.6697 14.5999 12.241 14.5999C12.8111 14.5999 13.3306 14.368 13.7043 13.9941C14.0779 13.6204 14.3101 13.1023 14.3101 12.5318C14.3101 11.9595 14.0781 11.4413 13.7043 11.0677C13.3306 10.694 12.8109 10.4619 12.241 10.4619C11.6697 10.4619 11.1505 10.6938 10.7777 11.0677Z" fill="#197265"/>
<path d="M5.17937 14.5999C5.74943 14.5999 6.26854 14.368 6.6417 13.9941C7.01542 13.6204 7.2485 13.1023 7.2475 12.5318C7.2485 11.9595 7.01557 11.4413 6.6417 11.0677C6.2684 10.694 5.74929 10.4619 5.17937 10.4619C4.60801 10.4619 4.08933 10.6938 3.71604 11.0677C3.34159 11.4414 3.10938 11.9595 3.10938 12.5318C3.10938 13.1024 3.34145 13.6205 3.71604 13.9941C4.08933 14.368 4.60801 14.5999 5.17937 14.5999Z" fill="#197265"/>
<path d="M17.8322 11.3302C17.4585 11.703 17.2266 12.2222 17.2266 12.7925C17.2266 13.363 17.4585 13.8821 17.8322 14.2557C18.2059 14.6286 18.7251 14.8615 19.2956 14.8615C19.8662 14.8615 20.3853 14.6286 20.7589 14.2557C21.1325 13.882 21.3651 13.3629 21.3641 12.7925C21.3651 12.222 21.1326 11.7029 20.7589 11.3302C20.3852 10.9556 19.866 10.7227 19.2956 10.7227C18.7251 10.7227 18.2061 10.9554 17.8322 11.3302Z" fill="#197265"/>
<path d="M0.285604 21.4716H24.1883C24.3455 21.4716 24.4735 21.3453 24.4735 21.1874C24.4735 21.0302 24.3455 20.9031 24.1883 20.9031H23.1158V18.7329C23.1158 18.2563 23.006 17.8013 22.8102 17.3887C22.5155 16.7703 22.0281 16.2513 21.4204 15.8866C20.8116 15.5201 20.0827 15.3079 19.299 15.3079C18.2555 15.3079 17.305 15.6844 16.6126 16.3001C16.2888 16.589 16.0212 16.9293 15.828 17.3102C15.8027 17.2472 15.7775 17.1875 15.7481 17.1261C15.4543 16.5086 14.966 15.9887 14.3582 15.624C13.7508 15.2574 13.02 15.047 12.2378 15.047C11.1939 15.047 10.2438 15.4216 9.55127 16.0382C9.20467 16.346 8.92208 16.7144 8.72618 17.1259C8.71986 17.1421 8.71355 17.1568 8.70623 17.171C8.70006 17.1566 8.6936 17.1421 8.68642 17.1259C8.39307 16.5085 7.9051 15.9885 7.297 15.6238C6.68876 15.2573 5.95925 15.0469 5.17663 15.0469C4.13224 15.0469 3.18242 15.4215 2.48907 16.038C2.14347 16.3459 1.86088 16.7143 1.66498 17.1258C1.46907 17.5392 1.35942 17.9942 1.35942 18.4708V20.9028H0.285315C0.12773 20.9028 0 21.0301 0 21.1871C0.000287041 21.3453 0.128019 21.4716 0.285604 21.4716Z" fill="#197265"/>
</svg>
   