<svg width="24" height="25" viewBox="0 0 24 25" fill="none" xmlns="http://www.w3.org/2000/svg">
<path d="M3 11.4082C3 12.5128 3.89543 13.4082 5 13.4082H9C10.1046 13.4082 11 12.5128 11 11.4082V5.4082C11 4.30363 10.1046 3.4082 9 3.4082H5C3.89543 3.4082 3 4.30363 3 5.4082V11.4082ZM3 19.4082C3 20.5128 3.89543 21.4082 5 21.4082H9C10.1046 21.4082 11 20.5128 11 19.4082V17.4082C11 16.3036 10.1046 15.4082 9 15.4082H5C3.89543 15.4082 3 16.3036 3 17.4082V19.4082ZM13 19.4082C13 20.5128 13.8954 21.4082 15 21.4082H19C20.1046 21.4082 21 20.5128 21 19.4082V13.4082C21 12.3036 20.1046 11.4082 19 11.4082H15C13.8954 11.4082 13 12.3036 13 13.4082V19.4082ZM15 3.4082C13.8954 3.4082 13 4.30363 13 5.4082V7.4082C13 8.51277 13.8954 9.4082 15 9.4082H19C20.1046 9.4082 21 8.51277 21 7.4082V5.4082C21 4.30363 20.1046 3.4082 19 3.4082H15Z" fill="#197265"/>
</svg>
