<svg width="28" height="28" viewBox="0 0 28 28" fill="none" xmlns="http://www.w3.org/2000/svg">
<path d="M24.4857 24.9481H3.50675C3.04181 24.9481 2.65625 24.5625 2.65625 24.0976C2.65625 23.6326 3.04181 23.2471 3.50675 23.2471H24.4857C24.9507 23.2471 25.3362 23.6326 25.3362 24.0976C25.3362 24.5625 24.9507 24.9481 24.4857 24.9481Z" fill="#197265"/>
<path opacity="0.4" d="M23.7404 15.5358L15.5416 23.7346C13.9314 25.3449 11.3345 25.3449 9.73555 23.7459L4.50781 18.5182L18.5241 4.50195L23.7518 9.72969C25.3507 11.3286 25.3507 13.9255 23.7404 15.5358Z" fill="#197265"/>
<path d="M18.5229 4.50219L4.49536 18.5184L3.46342 17.4865C1.86448 15.8876 1.86448 13.2907 3.47476 11.6804L11.6736 3.48159C13.2839 1.87131 15.8807 1.87131 17.4797 3.47025L18.5229 4.50219Z" fill="#197265"/>
<path d="M15.0081 19.9587L13.4772 21.4896C13.1597 21.8071 12.6494 21.8071 12.3319 21.4896C12.0144 21.1721 12.0144 20.6618 12.3319 20.3442L13.8628 18.8133C14.1803 18.4958 14.6906 18.4958 15.0081 18.8133C15.3257 19.1309 15.3257 19.6412 15.0081 19.9587Z" fill="#197265"/>
<path d="M19.973 14.9919L16.9225 18.0423C16.605 18.3599 16.0947 18.3599 15.7772 18.0423C15.4597 17.7248 15.4597 17.2145 15.7772 16.897L18.8277 13.8465C19.1452 13.529 19.6555 13.529 19.973 13.8465C20.2792 14.1641 20.2792 14.6744 19.973 14.9919Z" fill="#197265"/>
</svg>
