<svg width="28" height="28" viewBox="0 0 28 28" fill="none" xmlns="http://www.w3.org/2000/svg">
<path d="M24.4857 24.9481H3.50675C3.04181 24.9481 2.65625 24.5625 2.65625 24.0976C2.65625 23.6326 3.04181 23.2471 3.50675 23.2471H24.4857C24.9507 23.2471 25.3362 23.6326 25.3362 24.0976C25.3362 24.5625 24.9507 24.9481 24.4857 24.9481Z" fill="#717171"/>
<path opacity="0.4" d="M23.7404 15.5363L15.5416 23.7351C13.9314 25.3454 11.3345 25.3454 9.73555 23.7464L4.50781 18.5187L18.5241 4.50244L23.7518 9.73018C25.3507 11.3291 25.3507 13.926 23.7404 15.5363Z" fill="#717171"/>
<path d="M18.5229 4.50219L4.49536 18.5184L3.46342 17.4865C1.86448 15.8876 1.86448 13.2907 3.47476 11.6804L11.6736 3.48159C13.2839 1.87131 15.8807 1.87131 17.4797 3.47025L18.5229 4.50219Z" fill="#717171"/>
<path d="M15.0081 19.9582L13.4772 21.4891C13.1597 21.8066 12.6494 21.8066 12.3319 21.4891C12.0144 21.1716 12.0144 20.6613 12.3319 20.3437L13.8628 18.8128C14.1803 18.4953 14.6906 18.4953 15.0081 18.8128C15.3257 19.1304 15.3257 19.6407 15.0081 19.9582Z" fill="#717171"/>
<path d="M19.973 14.9914L16.9225 18.0418C16.605 18.3594 16.0947 18.3594 15.7772 18.0418C15.4597 17.7243 15.4597 17.214 15.7772 16.8965L18.8277 13.8461C19.1452 13.5285 19.6555 13.5285 19.973 13.8461C20.2792 14.1636 20.2792 14.6739 19.973 14.9914Z" fill="#717171"/>
</svg>
