<svg width="26" height="26" viewBox="0 0 26 26" fill="none" xmlns="http://www.w3.org/2000/svg">
<path d="M2.60592 18.1451L2.60592 18.1438L2.60592 7.77577C2.60592 6.13887 3.11562 4.85301 3.99139 3.97723C4.86717 3.10146 6.15303 2.59176 7.78992 2.59176L10.5871 2.59176C12.224 2.59176 13.5097 3.10144 14.3854 3.97837C15.2612 4.85535 15.7711 6.14391 15.7711 7.78656L15.7711 18.1438C15.7711 19.7807 15.2614 21.0665 14.3857 21.9423C13.5099 22.8181 12.224 23.3278 10.5871 23.3278L7.77912 23.3278C6.14215 23.3278 4.85646 22.818 3.98216 21.9425C3.10794 21.0671 2.60081 19.7817 2.60592 18.1451Z" fill="#777778" stroke="#505050" stroke-width="0.864"/>
<path d="M21.0035 12.4382L21.6988 12.4382L21.2072 11.9465L18.9716 9.71091C18.7708 9.51018 18.7708 9.17413 18.9716 8.9734C19.1723 8.77267 19.5083 8.77267 19.7091 8.9734L23.3271 12.5914C23.5278 12.7921 23.5278 13.1282 23.3271 13.3289L19.7091 16.9469C19.4956 17.1604 19.1731 17.1553 18.975 16.9504L18.9698 16.9451L18.9644 16.94C18.8702 16.852 18.8183 16.7173 18.8183 16.5782C18.8183 16.4452 18.8664 16.3145 18.9716 16.2094L21.2072 13.9738L21.6988 13.4822L21.0035 13.4822L9.45832 13.4822C9.17458 13.4822 8.93632 13.2439 8.93632 12.9602C8.93632 12.6764 9.17458 12.4382 9.45832 12.4382L21.0035 12.4382Z" fill="#505050" stroke="#505050" stroke-width="0.576"/>
</svg>
