<svg width="28" height="27" viewBox="0 0 28 27" fill="none" xmlns="http://www.w3.org/2000/svg">
<path opacity="0.4" d="M20.5937 21.1541H19.7578C18.8778 21.1541 18.0417 21.4951 17.4257 22.1111L15.5448 23.9701C14.6868 24.8171 13.2898 24.8171 12.4318 23.9701L10.5507 22.1111C9.93474 21.4951 9.08775 21.1541 8.21875 21.1541H7.39375C5.56775 21.1541 4.09375 19.6911 4.09375 17.8871V5.88611C4.09375 4.08211 5.56775 2.61914 7.39375 2.61914H20.5937C22.4197 2.61914 23.8937 4.08211 23.8937 5.88611V17.8871C23.8937 19.6801 22.4197 21.1541 20.5937 21.1541Z" fill="#505050"/>
<path d="M12.2102 16.369H9.26224C8.77824 16.369 8.32724 16.138 8.04124 15.742C7.76624 15.368 7.70024 14.9061 7.83224 14.4661C8.21724 13.2891 9.16324 12.651 9.99924 12.079C10.8792 11.485 11.3742 11.1111 11.3742 10.4731C11.3742 9.90107 10.9122 9.43906 10.3402 9.43906C9.76824 9.43906 9.30625 9.90107 9.30625 10.4731C9.30625 10.9241 8.93225 11.2981 8.48125 11.2981C8.03025 11.2981 7.65625 10.9241 7.65625 10.4731C7.65625 8.99907 8.85524 7.78906 10.3402 7.78906C11.8252 7.78906 13.0242 8.98807 13.0242 10.4731C13.0242 12.0241 11.8583 12.816 10.9233 13.454C10.3403 13.85 9.79024 14.224 9.51524 14.719H12.1992C12.6502 14.719 13.0242 15.093 13.0242 15.544C13.0242 15.995 12.6612 16.369 12.2102 16.369Z" fill="#505050"/>
<path d="M18.4369 16.369C17.9859 16.369 17.6119 15.995 17.6119 15.544V14.785H15.4559C15.4559 14.785 15.4559 14.785 15.4449 14.785C14.9059 14.785 14.4109 14.4991 14.1359 14.0371C13.8609 13.5641 13.8609 12.981 14.1359 12.519C14.8839 11.232 15.7529 9.76901 16.5449 8.49301C16.8969 7.93201 17.5679 7.67906 18.1949 7.85506C18.8219 8.04206 19.2619 8.61403 19.2509 9.27403V13.1461H19.4929C19.9439 13.1461 20.3179 13.5201 20.3179 13.9711C20.3179 14.4221 19.9439 14.7961 19.4929 14.7961H19.2619V15.5551C19.2619 16.0061 18.8989 16.369 18.4369 16.369ZM17.6119 9.91205C16.9629 10.9681 16.2919 12.101 15.6869 13.135H17.6119V9.91205Z" fill="#505050"/>
</svg>
