<svg width="27" height="27" viewBox="0 0 27 27" fill="none" xmlns="http://www.w3.org/2000/svg">
<path d="M23.2011 23.6504C23.2011 23.9584 22.9591 24.2004 22.6511 24.2004H3.75313C3.44512 24.2004 3.20312 23.9584 3.20312 23.6504C3.20312 19.0964 7.69112 15.4004 13.2021 15.4004C14.3351 15.4004 15.4351 15.5544 16.4471 15.8514C15.7981 16.6214 15.4021 17.6224 15.4021 18.7004C15.4021 19.5254 15.6331 20.3064 16.0401 20.9664C16.2601 21.3404 16.5461 21.6814 16.8761 21.9674C17.6461 22.6714 18.6691 23.1004 19.8021 23.1004C21.0341 23.1004 22.1451 22.5944 22.9371 21.7804C23.1131 22.3744 23.2011 23.0014 23.2011 23.6504Z" fill="#BAE3DF"/>
<path d="M23.0654 15.7628C22.2734 14.8608 21.0964 14.2998 19.7984 14.2998C18.5664 14.2998 17.4444 14.8058 16.6414 15.6308C15.8714 16.4228 15.3984 17.5118 15.3984 18.6998C15.3984 19.5248 15.6294 20.3058 16.0364 20.9658C16.2564 21.3398 16.5424 21.6808 16.8724 21.9668C17.6424 22.6708 18.6654 23.0998 19.7984 23.0998C21.4044 23.0998 22.8015 22.2418 23.5605 20.9658C23.7915 20.5918 23.9674 20.1628 24.0664 19.7228C24.1544 19.3928 24.1984 19.0518 24.1984 18.6998C24.1984 17.5778 23.7694 16.5438 23.0654 15.7628ZM21.4484 19.5028H20.6234V20.3608C20.6234 20.8118 20.2494 21.1858 19.7984 21.1858C19.3474 21.1858 18.9734 20.8118 18.9734 20.3608V19.5028H18.1484C17.6974 19.5028 17.3234 19.1288 17.3234 18.6778C17.3234 18.2268 17.6974 17.8528 18.1484 17.8528H18.9734V17.0718C18.9734 16.6208 19.3474 16.2468 19.7984 16.2468C20.2494 16.2468 20.6234 16.6208 20.6234 17.0718V17.8528H21.4484C21.8994 17.8528 22.2734 18.2268 22.2734 18.6778C22.2734 19.1288 21.8994 19.5028 21.4484 19.5028Z" fill="#197265"/>
<path d="M13.2031 13.2002C16.2407 13.2002 18.7031 10.7378 18.7031 7.7002C18.7031 4.66263 16.2407 2.2002 13.2031 2.2002C10.1656 2.2002 7.70312 4.66263 7.70312 7.7002C7.70312 10.7378 10.1656 13.2002 13.2031 13.2002Z" fill="#197265"/>
</svg>
