<svg width="118" height="118" viewBox="0 0 118 118" fill="none" xmlns="http://www.w3.org/2000/svg">
<rect x="2.00312" y="2.4001" width="113.4" height="113.4" rx="56.088" fill="#D4ECEA"/>
<rect x="2.00312" y="2.4001" width="113.4" height="113.4" rx="56.088" stroke="#197265" stroke-width="3.6"/>
<path d="M71.0201 91.5424H46.4129C35.1859 91.5424 28.7266 85.2049 28.7266 74.1897V44.0111C28.7266 32.9959 35.1859 26.6584 46.4129 26.6584H71.0201C82.2471 26.6584 88.7065 32.9959 88.7065 44.0111V74.1897C88.7065 85.2049 82.2471 91.5424 71.0201 91.5424ZM46.4129 31.1852C37.6159 31.1852 33.3404 35.3801 33.3404 44.0111V74.1897C33.3404 82.8208 37.6159 87.0156 46.4129 87.0156H71.0201C79.8171 87.0156 84.0926 82.8208 84.0926 74.1897V44.0111C84.0926 35.3801 79.8171 31.1852 71.0201 31.1852H46.4129Z" fill="#197265"/>
<path d="M78.7121 50.8013H72.5603C67.8849 50.8013 64.1016 47.0894 64.1016 42.5022V36.4665C64.1016 35.2292 65.1474 34.2031 66.4085 34.2031C67.6696 34.2031 68.7154 35.2292 68.7154 36.4665V42.5022C68.7154 44.5846 70.4379 46.2746 72.5603 46.2746H78.7121C79.9732 46.2746 81.019 47.3006 81.019 48.5379C81.019 49.7753 79.9732 50.8013 78.7121 50.8013Z" fill="#197265"/>
<path d="M58.7081 64.381H46.4046C45.1435 64.381 44.0977 63.355 44.0977 62.1176C44.0977 60.8803 45.1435 59.8542 46.4046 59.8542H58.7081C59.9693 59.8542 61.0151 60.8803 61.0151 62.1176C61.0151 63.355 59.9693 64.381 58.7081 64.381Z" fill="#197265"/>
<path d="M71.0117 76.4531H46.4046C45.1435 76.4531 44.0977 75.427 44.0977 74.1897C44.0977 72.9523 45.1435 71.9263 46.4046 71.9263H71.0117C72.2728 71.9263 73.3186 72.9523 73.3186 74.1897C73.3186 75.427 72.2728 76.4531 71.0117 76.4531Z" fill="#197265"/>
</svg>
