<svg width="118" height="118" viewBox="0 0 118 118" fill="none" xmlns="http://www.w3.org/2000/svg">
<rect x="2.00312" y="2.4001" width="113.4" height="113.4" rx="56.088" fill="#D4ECEA"/>
<rect x="2.00312" y="2.4001" width="113.4" height="113.4" rx="56.088" stroke="#197265" stroke-width="3.6"/>
<path d="M76.2873 48.6445C76.0899 48.6151 75.8925 48.6151 75.6951 48.6445C71.3241 48.4975 67.8555 44.7637 67.8555 40.1773C67.8555 35.5027 71.4933 31.6807 76.0053 31.6807C80.4891 31.6807 84.1551 35.4733 84.1551 40.1773C84.1269 44.7637 80.6583 48.4975 76.2873 48.6445Z" fill="#197265"/>
<path d="M85.4799 69.0184C82.3215 71.2234 77.8941 72.0466 73.8051 71.488C74.8767 69.0772 75.4407 66.4018 75.4689 63.5794C75.4689 60.6394 74.8485 57.8464 73.6641 55.4062C77.8377 54.8182 82.2651 55.6414 85.4517 57.8464C89.9073 60.904 89.9073 65.9314 85.4799 69.0184Z" fill="#197265"/>
<path d="M45.0115 48.6445C45.2089 48.6151 45.4063 48.6151 45.6037 48.6445C49.9747 48.4975 53.4433 44.7637 53.4433 40.1773C53.4433 35.4733 49.8055 31.6807 45.2935 31.6807C40.8097 31.6807 37.1719 35.4733 37.1719 40.1773C37.1719 44.7637 40.6405 48.4975 45.0115 48.6445Z" fill="#197265"/>
<path d="M45.3217 63.5795C45.3217 66.4313 45.9139 69.1361 46.9855 71.5763C43.0093 72.0173 38.8639 71.1353 35.8183 69.0479C31.3627 65.9609 31.3627 60.9335 35.8183 57.8465C38.8357 55.7297 43.0939 54.8771 47.0983 55.3475C45.9421 57.8171 45.3217 60.6101 45.3217 63.5795Z" fill="#197265"/>
<path d="M61.0322 72.4583C60.8066 72.4289 60.5528 72.4289 60.299 72.4583C55.1102 72.2819 50.9648 67.8425 50.9648 62.3741C50.993 56.7881 55.3076 52.2605 60.6938 52.2605C66.0518 52.2605 70.3946 56.7881 70.3946 62.3741C70.3664 67.8425 66.2492 72.2819 61.0322 72.4583Z" fill="#197265"/>
<path d="M51.8655 78.544C47.6073 81.5134 47.6073 86.3938 51.8655 89.3338C56.7159 92.7148 64.6683 92.7148 69.5187 89.3338C73.7769 86.3644 73.7769 81.484 69.5187 78.544C64.6965 75.1631 56.7441 75.1631 51.8655 78.544Z" fill="#197265"/>
</svg>
