<svg width="202" height="202" viewBox="0 0 202 202" fill="none" xmlns="http://www.w3.org/2000/svg">
<rect x="0.402344" width="201.6" height="201.6" rx="96.48" fill="#DDD4F0"/>
<path d="M101.196 134.039C120.835 134.039 136.756 119.157 136.756 100.799C136.756 82.4408 120.835 67.5586 101.196 67.5586C81.5572 67.5586 65.6367 82.4408 65.6367 100.799C65.6367 119.157 81.5572 134.039 101.196 134.039Z" stroke="black" stroke-width="4.8" stroke-miterlimit="10"/>
<path d="M156.4 107.251V94.3497C156.4 91.4811 153.915 89.1581 150.846 89.1581C148.524 89.1581 146.431 87.8115 145.639 85.7707C145.149 84.5042 144.599 83.2683 143.995 82.0591C143.007 80.0908 143.464 77.7524 145.109 76.2189C147.28 74.1896 147.28 70.9052 145.109 68.8758L135.352 59.7551C133.181 57.7258 129.667 57.7258 127.496 59.7551C125.852 61.2924 123.35 61.7197 121.249 60.7966C119.955 60.2282 118.629 59.717 117.278 59.2593C115.095 58.5231 113.654 56.5624 113.654 54.3918C113.654 51.5233 111.169 49.2002 108.101 49.2002H94.2995C91.2308 49.2002 88.7456 51.5233 88.7456 54.3918C88.7456 56.5624 87.3051 58.5192 85.1219 59.2593C83.7671 59.717 82.445 60.232 81.1514 60.7966C79.0457 61.7197 76.5442 61.2924 74.9038 59.7551C72.7328 57.7258 69.2193 57.7258 67.0484 59.7551L57.2914 68.8758C55.1204 70.9052 55.1204 74.1896 57.2914 76.2189C58.9359 77.7562 59.393 80.0946 58.4054 82.0591C57.7974 83.2683 57.2506 84.5081 56.7609 85.7707C55.9733 87.8115 53.8758 89.1581 51.5539 89.1581C48.4852 89.1581 46 91.4811 46 94.3497V107.251C46 110.119 48.4852 112.442 51.5539 112.442C53.8758 112.442 55.9692 113.789 56.7609 115.83C57.2506 117.096 57.8015 118.332 58.4054 119.541C59.393 121.51 58.9359 123.848 57.2914 125.381C55.1204 127.411 55.1204 130.695 57.2914 132.724L67.0484 141.845C69.2193 143.875 72.7328 143.875 74.9038 141.845C76.5483 140.308 79.0498 139.881 81.1514 140.804C82.445 141.372 83.7712 141.883 85.1219 142.341C87.3051 143.077 88.7456 145.038 88.7456 147.208C88.7456 150.077 91.2308 152.4 94.2995 152.4H108.101C111.169 152.4 113.654 150.077 113.654 147.208C113.654 145.038 115.095 143.081 117.278 142.341C118.633 141.883 119.955 141.368 121.249 140.804C123.354 139.881 125.856 140.308 127.496 141.845C129.667 143.875 133.181 143.875 135.352 141.845L145.109 132.724C147.28 130.695 147.28 127.411 145.109 125.381C143.464 123.844 143.007 121.506 143.995 119.541C144.603 118.332 145.149 117.092 145.639 115.83C146.431 113.789 148.524 112.442 150.846 112.442C153.915 112.442 156.4 110.119 156.4 107.251Z" stroke="black" stroke-width="4.8" stroke-miterlimit="10" stroke-linecap="round" stroke-linejoin="round"/>
</svg>
