<svg width="203" height="202" viewBox="0 0 203 202" fill="none" xmlns="http://www.w3.org/2000/svg">
<rect x="0.800781" width="201.6" height="201.6" rx="96.48" fill="#D4F0E6"/>
<path d="M133.627 132.351H70.7994C67.4911 132.351 65.5134 128.632 67.353 125.853L76.0526 112.636V93.8423C76.0526 86.5462 78.99 79.9228 83.7161 75.1409C86.5445 72.2812 90.0199 70.0796 93.899 68.7674C93.5281 67.797 93.3427 66.7532 93.3427 65.6725C93.3427 60.7215 97.3126 56.7041 102.213 56.7041C107.11 56.7041 111.084 60.7178 111.084 65.6725C111.084 66.7495 110.898 67.797 110.527 68.7674C120.896 72.2812 128.359 82.1723 128.359 93.8423V112.636L137.073 125.853C138.895 128.635 136.932 132.351 133.627 132.351Z" stroke="black" stroke-width="4.8" stroke-miterlimit="10" stroke-linecap="round" stroke-linejoin="round"/>
<path d="M89.1992 138.163C91.4096 143.21 96.401 146.724 102.21 146.724C108.02 146.724 112.997 143.21 115.207 138.163" stroke="black" stroke-width="4.8" stroke-miterlimit="10" stroke-linecap="round" stroke-linejoin="round"/>
<path d="M65.2792 93.4087C64.025 90.3874 63.4324 87.0205 63.6869 83.5177C64.2758 75.3689 69.2709 68.6095 76.1455 65.4521" stroke="black" stroke-width="4.8" stroke-miterlimit="10" stroke-linecap="round" stroke-linejoin="round"/>
<path d="M53.8206 98.2641C51.8284 93.4638 50.8941 88.1489 51.294 82.6025C52.2246 69.7011 60.1426 58.9905 71.0235 53.999" stroke="black" stroke-width="4.8" stroke-miterlimit="10" stroke-linecap="round" stroke-linejoin="round"/>
<path d="M128.258 65.4521C135.132 68.6095 140.127 75.3689 140.716 83.5177C140.971 87.0242 140.375 90.3874 139.12 93.4087" stroke="black" stroke-width="4.8" stroke-miterlimit="10" stroke-linecap="round" stroke-linejoin="round"/>
<path d="M133.383 53.999C144.264 58.9905 152.178 69.7011 153.112 82.6025C153.512 88.1489 152.582 93.4675 150.586 98.2641" stroke="black" stroke-width="4.8" stroke-miterlimit="10" stroke-linecap="round" stroke-linejoin="round"/>
</svg>
