<svg width="203" height="202" viewBox="0 0 203 202" fill="none" xmlns="http://www.w3.org/2000/svg">
<rect x="0.605469" width="201.6" height="201.6" rx="96.48" fill="#EFF0D4"/>
<path d="M140.891 69.3008C140.017 68.9132 139.038 68.6865 138.004 68.6865H138H88.2833H64.814C61.1657 68.6865 58.207 71.3851 58.207 74.709V103.121V133.867C58.207 136.236 59.7104 138.28 61.8914 139.264C62.7734 139.662 63.7596 139.889 64.81 139.889H64.814H138C141.648 139.889 144.607 137.19 144.607 133.867V105.454V74.709C144.607 72.3285 143.088 70.2771 140.891 69.3008Z" stroke="black" stroke-width="4.8" stroke-miterlimit="10" stroke-linecap="round" stroke-linejoin="round"/>
<path d="M58.207 91.1045H144.607" stroke="black" stroke-width="4.8" stroke-miterlimit="10" stroke-linecap="round" stroke-linejoin="round"/>
<path d="M78.9492 61.2002V77.6296" stroke="black" stroke-width="4.8" stroke-miterlimit="10" stroke-linecap="round" stroke-linejoin="round"/>
<path d="M123.863 61.2002V77.6296" stroke="black" stroke-width="4.8" stroke-miterlimit="10" stroke-linecap="round" stroke-linejoin="round"/>
<path d="M74.0898 106.199H84.2008" stroke="black" stroke-width="4.8" stroke-miterlimit="10" stroke-linecap="round" stroke-linejoin="round"/>
<path d="M96.3477 106.199H106.459" stroke="black" stroke-width="4.8" stroke-miterlimit="10" stroke-linecap="round" stroke-linejoin="round"/>
<path d="M118.605 106.199H128.716" stroke="black" stroke-width="4.8" stroke-miterlimit="10" stroke-linecap="round" stroke-linejoin="round"/>
<path d="M74.0898 125.51H84.2008" stroke="black" stroke-width="4.8" stroke-miterlimit="10" stroke-linecap="round" stroke-linejoin="round"/>
<path d="M96.3477 125.511H106.459" stroke="black" stroke-width="4.8" stroke-miterlimit="10" stroke-linecap="round" stroke-linejoin="round"/>
<path d="M118.801 125.511H128.916" stroke="black" stroke-width="4.8" stroke-miterlimit="10" stroke-linecap="round" stroke-linejoin="round"/>
</svg>
