<svg width="202" height="202" viewBox="0 0 202 202" fill="none" xmlns="http://www.w3.org/2000/svg">
<rect x="0.00390625" width="201.6" height="201.6" rx="96.48" fill="#D4E4F0"/>
<path d="M100.208 144.085C125.95 144.085 146.818 124.491 146.818 100.32C146.818 76.1498 125.95 56.5557 100.208 56.5557C74.4659 56.5557 53.5977 76.1498 53.5977 100.32C53.5977 124.491 74.4659 144.085 100.208 144.085Z" stroke="black" stroke-width="4.8" stroke-miterlimit="10"/>
<path d="M100.207 153.841C131.687 153.841 157.207 129.879 157.207 100.321C157.207 70.7625 131.687 46.8008 100.207 46.8008C68.7268 46.8008 43.207 70.7625 43.207 100.321C43.207 129.879 68.7268 153.841 100.207 153.841Z" stroke="black" stroke-width="4.8" stroke-miterlimit="10"/>
<path d="M100.207 75.2119V100.32L85.8164 113.832" stroke="black" stroke-width="4.8" stroke-miterlimit="10" stroke-linecap="round" stroke-linejoin="round"/>
<path d="M100.207 56.5527V63.1445" stroke="black" stroke-width="4.8" stroke-miterlimit="10" stroke-linecap="round" stroke-linejoin="round"/>
<path d="M53.5977 100.32H60.618" stroke="black" stroke-width="4.8" stroke-miterlimit="10" stroke-linecap="round" stroke-linejoin="round"/>
<path d="M100.207 144.086V137.494" stroke="black" stroke-width="4.8" stroke-miterlimit="10" stroke-linecap="round" stroke-linejoin="round"/>
<path d="M146.817 100.32H139.801" stroke="black" stroke-width="4.8" stroke-miterlimit="10" stroke-linecap="round" stroke-linejoin="round"/>
</svg>
