<svg width="118" height="118" viewBox="0 0 118 118" fill="none" xmlns="http://www.w3.org/2000/svg">
<rect x="2.00312" y="1.99995" width="113.4" height="113.4" rx="56.088" fill="#D4ECEA"/>
<rect x="2.00312" y="1.99995" width="113.4" height="113.4" rx="56.088" stroke="#197265" stroke-width="3.6"/>
<path d="M60.7168 76.3704C57.9118 76.3704 55.0738 75.6642 52.8628 74.2839L32.9968 61.6686C29.3008 59.3253 27.0898 55.377 27.0898 51.0756C27.0898 46.7742 29.3008 42.8259 32.9968 40.4826L52.8958 27.8994C57.3178 25.1067 64.2148 25.1067 68.6038 27.9315L88.3708 40.5468C92.0338 42.8901 94.2448 46.8384 94.2448 51.1077C94.2448 55.377 92.0338 59.3253 88.3708 61.6686L68.6038 74.2839C66.3928 75.6963 63.5548 76.3704 60.7168 76.3704ZM60.7168 30.6279C58.8358 30.6279 56.9548 31.0452 55.6018 31.944L35.7358 44.5272C33.4258 46.0038 32.0728 48.3792 32.0728 51.0756C32.0728 53.772 33.3928 56.1474 35.7358 57.624L55.6018 70.2393C58.3408 71.9727 63.1588 71.9727 65.8978 70.2393L85.6648 57.624C87.9748 56.1474 89.2948 53.772 89.2948 51.0756C89.2948 48.3792 87.9748 46.0038 85.6648 44.5272L65.8978 31.9119C64.5118 31.0773 62.6308 30.6279 60.7168 30.6279Z" fill="#197265"/>
<path d="M60.6855 94.8278C59.2335 94.8278 57.7485 94.6352 56.5605 94.25L46.0335 90.8474C41.0505 89.2424 37.1235 83.9459 37.1565 78.842L37.1895 63.7871C37.1895 62.471 38.3115 61.3796 39.6645 61.3796C41.0175 61.3796 42.1395 62.471 42.1395 63.7871L42.1065 78.842C42.1065 81.8594 44.6805 85.3262 47.6175 86.2892L58.1445 89.6918C59.4645 90.1091 61.9065 90.1091 63.2265 89.6918L73.7535 86.2892C76.6905 85.3262 79.2645 81.8594 79.2645 78.8741V63.9797C79.2645 62.6636 80.3865 61.5722 81.7395 61.5722C83.0925 61.5722 84.2145 62.6636 84.2145 63.9797V78.8741C84.2145 83.978 80.3205 89.2424 75.3375 90.8795L64.8105 94.2821C63.6225 94.6352 62.1375 94.8278 60.6855 94.8278Z" fill="#197265"/>
<path d="M91.7055 72.3577C90.3525 72.3577 89.2305 71.2663 89.2305 69.9502V50.6902C89.2305 49.3741 90.3525 48.2827 91.7055 48.2827C93.0585 48.2827 94.1805 49.3741 94.1805 50.6902V69.9502C94.1805 71.2663 93.0585 72.3577 91.7055 72.3577Z" fill="#197265"/>
</svg>
