<svg width="117" height="117" viewBox="0 0 117 117" fill="none" xmlns="http://www.w3.org/2000/svg">
<rect x="1.8" y="1.8" width="113.4" height="113.4" rx="56.088" fill="#D4ECEA"/>
<rect x="1.8" y="1.8" width="113.4" height="113.4" rx="56.088" stroke="#197265" stroke-width="3.6"/>
<path d="M60.127 57.6904C50.9023 57.6904 43.3945 49.9504 43.3945 40.4404C43.3945 30.9304 50.9023 23.1904 60.127 23.1904C69.3517 23.1904 76.8595 30.9304 76.8595 40.4404C76.8595 49.9504 69.3517 57.6904 60.127 57.6904ZM60.127 27.6904C53.3176 27.6904 47.7595 33.4204 47.7595 40.4404C47.7595 47.4604 53.3176 53.1904 60.127 53.1904C66.9364 53.1904 72.4945 47.4604 72.4945 40.4404C72.4945 33.4204 66.9364 27.6904 60.127 27.6904Z" fill="#197265"/>
<path d="M35.1278 87.6904C33.9347 87.6904 32.9453 86.6704 32.9453 85.4404C32.9453 72.6304 45.1382 62.1904 60.1247 62.1904C63.0638 62.1904 65.9447 62.5805 68.7383 63.3905C69.9023 63.7205 70.5716 64.9505 70.2515 66.1505C69.9314 67.3505 68.7383 68.0405 67.5743 67.7105C65.1881 67.0205 62.6855 66.6904 60.1247 66.6904C47.5535 66.6904 37.3103 75.0904 37.3103 85.4404C37.3103 86.6704 36.3209 87.6904 35.1278 87.6904Z" fill="#197265"/>
<path d="M77.5842 87.6904C72.7536 87.6904 68.214 85.0504 65.7696 80.7604C64.4601 78.6004 63.7617 76.0504 63.7617 73.4404C63.7617 69.0604 65.6532 65.0104 68.9415 62.3104C71.3859 60.3004 74.4705 59.1904 77.5842 59.1904C85.2084 59.1904 91.4067 65.5804 91.4067 73.4404C91.4067 76.0504 90.7083 78.6005 89.3988 80.7905C88.6713 82.0505 87.7401 83.1905 86.6343 84.1505C84.219 86.4305 80.9889 87.6904 77.5842 87.6904ZM77.5842 63.6904C75.4308 63.6904 73.3938 64.4403 71.6769 65.8503C69.4362 67.6803 68.1267 70.4704 68.1267 73.4404C68.1267 75.2104 68.5923 76.9504 69.4944 78.4504C71.1822 81.3904 74.2959 83.1904 77.5842 83.1904C79.8831 83.1904 82.0947 82.3204 83.7825 80.7604C84.5391 80.1004 85.1793 79.3204 85.6449 78.4804C86.5761 76.9504 87.0417 75.2104 87.0417 73.4404C87.0417 68.0704 82.7931 63.6904 77.5842 63.6904Z" fill="#197265"/>
<path d="M75.9272 78.6606C75.3743 78.6606 74.8214 78.4507 74.3849 78.0007L71.504 75.0307C70.6601 74.1607 70.6601 72.7205 71.504 71.8505C72.3479 70.9805 73.7447 70.9805 74.5886 71.8505L75.9854 73.2907L80.6414 68.8505C81.5144 68.0105 82.9112 68.0707 83.726 68.9707C84.5408 69.8707 84.4826 71.3106 83.6096 72.1506L77.4113 78.0606C76.9748 78.4506 76.451 78.6606 75.9272 78.6606Z" fill="#197265"/>
</svg>
